<mxfile host="app.diagrams.net" modified="2023-12-19T14:39:39.872Z" agent="Mozilla/5.0 (Windows NT 10.0; Win64; x64) AppleWebKit/537.36 (KHTML, like Gecko) Chrome/118.0.5993.771 YaBrowser/23.11.2.771 Yowser/2.5 Safari/537.36" etag="Kf5AVvyh7pi8mCcS5gCE" version="22.1.11" type="github">
  <diagram name="Страница — 1" id="95dfs9ff0Wd2YRVwgPRh">
    <mxGraphModel dx="1699" dy="886" grid="0" gridSize="10" guides="1" tooltips="1" connect="1" arrows="1" fold="1" page="0" pageScale="1" pageWidth="827" pageHeight="1169" math="0" shadow="0">
      <root>
        <mxCell id="0" />
        <mxCell id="1" parent="0" />
        <mxCell id="uwdhekw9rvC6qfYLKvx_-8" style="edgeStyle=orthogonalEdgeStyle;rounded=0;orthogonalLoop=1;jettySize=auto;html=1;entryX=0;entryY=0.5;entryDx=0;entryDy=0;" parent="1" source="uwdhekw9rvC6qfYLKvx_-1" target="uwdhekw9rvC6qfYLKvx_-3" edge="1">
          <mxGeometry relative="1" as="geometry" />
        </mxCell>
        <mxCell id="uwdhekw9rvC6qfYLKvx_-1" value="Пользователь" style="shape=umlActor;verticalLabelPosition=bottom;verticalAlign=top;html=1;outlineConnect=0;" parent="1" vertex="1">
          <mxGeometry x="-726" y="328" width="30" height="60" as="geometry" />
        </mxCell>
        <mxCell id="uwdhekw9rvC6qfYLKvx_-9" style="edgeStyle=orthogonalEdgeStyle;rounded=0;orthogonalLoop=1;jettySize=auto;html=1;exitX=1;exitY=0.5;exitDx=0;exitDy=0;entryX=0;entryY=0.5;entryDx=0;entryDy=0;" parent="1" source="uwdhekw9rvC6qfYLKvx_-3" target="uwdhekw9rvC6qfYLKvx_-4" edge="1">
          <mxGeometry relative="1" as="geometry" />
        </mxCell>
        <mxCell id="uwdhekw9rvC6qfYLKvx_-3" value="Запуск" style="ellipse;whiteSpace=wrap;html=1;" parent="1" vertex="1">
          <mxGeometry x="-626" y="333" width="100" height="50" as="geometry" />
        </mxCell>
        <mxCell id="uwdhekw9rvC6qfYLKvx_-4" value="Выбор склада" style="ellipse;whiteSpace=wrap;html=1;" parent="1" vertex="1">
          <mxGeometry x="-456" y="333" width="100" height="50" as="geometry" />
        </mxCell>
        <mxCell id="uwdhekw9rvC6qfYLKvx_-5" value="Сохранить данные&lt;br&gt;(после заполнения полей)" style="ellipse;whiteSpace=wrap;html=1;" parent="1" vertex="1">
          <mxGeometry x="41" y="328" width="170" height="60" as="geometry" />
        </mxCell>
        <mxCell id="uwdhekw9rvC6qfYLKvx_-11" value="Удаление указанной строки" style="ellipse;whiteSpace=wrap;html=1;" parent="1" vertex="1">
          <mxGeometry x="36" y="170" width="170" height="60" as="geometry" />
        </mxCell>
        <mxCell id="uwdhekw9rvC6qfYLKvx_-14" value="Редактирование" style="ellipse;whiteSpace=wrap;html=1;" parent="1" vertex="1">
          <mxGeometry x="36" y="486" width="170" height="60" as="geometry" />
        </mxCell>
        <mxCell id="QWrrYXYVFJ42WMiiCsQI-1" value="Склад Смартфоны" style="ellipse;whiteSpace=wrap;html=1;" parent="1" vertex="1">
          <mxGeometry x="-290" y="283" width="100" height="50" as="geometry" />
        </mxCell>
        <mxCell id="QWrrYXYVFJ42WMiiCsQI-3" value="Склад Велосипеды" style="ellipse;whiteSpace=wrap;html=1;" parent="1" vertex="1">
          <mxGeometry x="-290" y="383" width="100" height="50" as="geometry" />
        </mxCell>
        <mxCell id="QWrrYXYVFJ42WMiiCsQI-5" value="" style="endArrow=classic;html=1;rounded=0;entryX=0;entryY=0.5;entryDx=0;entryDy=0;exitX=1;exitY=0;exitDx=0;exitDy=0;" parent="1" source="uwdhekw9rvC6qfYLKvx_-4" target="QWrrYXYVFJ42WMiiCsQI-1" edge="1">
          <mxGeometry width="50" height="50" relative="1" as="geometry">
            <mxPoint x="-369" y="297" as="sourcePoint" />
            <mxPoint x="-650" y="494" as="targetPoint" />
          </mxGeometry>
        </mxCell>
        <mxCell id="QWrrYXYVFJ42WMiiCsQI-10" value="" style="endArrow=classic;html=1;rounded=0;entryX=0;entryY=0.5;entryDx=0;entryDy=0;exitX=1;exitY=1;exitDx=0;exitDy=0;" parent="1" source="uwdhekw9rvC6qfYLKvx_-4" target="QWrrYXYVFJ42WMiiCsQI-3" edge="1">
          <mxGeometry width="50" height="50" relative="1" as="geometry">
            <mxPoint x="-362" y="500" as="sourcePoint" />
            <mxPoint x="-208" y="561" as="targetPoint" />
          </mxGeometry>
        </mxCell>
        <mxCell id="QWrrYXYVFJ42WMiiCsQI-27" value="Смартфоны" style="swimlane;fontStyle=0;childLayout=stackLayout;horizontal=1;startSize=26;horizontalStack=0;resizeParent=1;resizeParentMax=0;resizeLast=0;collapsible=1;marginBottom=0;align=center;fontSize=14;" parent="1" vertex="1">
          <mxGeometry x="-955" y="650" width="160" height="236" as="geometry" />
        </mxCell>
        <mxCell id="QWrrYXYVFJ42WMiiCsQI-28" value="Производитель" style="text;strokeColor=none;fillColor=none;spacingLeft=4;spacingRight=4;overflow=hidden;rotatable=0;points=[[0,0.5],[1,0.5]];portConstraint=eastwest;fontSize=12;whiteSpace=wrap;html=1;" parent="QWrrYXYVFJ42WMiiCsQI-27" vertex="1">
          <mxGeometry y="26" width="160" height="30" as="geometry" />
        </mxCell>
        <mxCell id="QWrrYXYVFJ42WMiiCsQI-29" value="Модель" style="text;strokeColor=none;fillColor=none;spacingLeft=4;spacingRight=4;overflow=hidden;rotatable=0;points=[[0,0.5],[1,0.5]];portConstraint=eastwest;fontSize=12;whiteSpace=wrap;html=1;" parent="QWrrYXYVFJ42WMiiCsQI-27" vertex="1">
          <mxGeometry y="56" width="160" height="30" as="geometry" />
        </mxCell>
        <mxCell id="QWrrYXYVFJ42WMiiCsQI-30" value="ПЗУ" style="text;strokeColor=none;fillColor=none;spacingLeft=4;spacingRight=4;overflow=hidden;rotatable=0;points=[[0,0.5],[1,0.5]];portConstraint=eastwest;fontSize=12;whiteSpace=wrap;html=1;" parent="QWrrYXYVFJ42WMiiCsQI-27" vertex="1">
          <mxGeometry y="86" width="160" height="30" as="geometry" />
        </mxCell>
        <mxCell id="QWrrYXYVFJ42WMiiCsQI-41" value="ОЗУ" style="text;strokeColor=none;fillColor=none;spacingLeft=4;spacingRight=4;overflow=hidden;rotatable=0;points=[[0,0.5],[1,0.5]];portConstraint=eastwest;fontSize=12;whiteSpace=wrap;html=1;" parent="QWrrYXYVFJ42WMiiCsQI-27" vertex="1">
          <mxGeometry y="116" width="160" height="30" as="geometry" />
        </mxCell>
        <mxCell id="QWrrYXYVFJ42WMiiCsQI-35" value="Цвет" style="text;strokeColor=none;fillColor=none;spacingLeft=4;spacingRight=4;overflow=hidden;rotatable=0;points=[[0,0.5],[1,0.5]];portConstraint=eastwest;fontSize=12;whiteSpace=wrap;html=1;" parent="QWrrYXYVFJ42WMiiCsQI-27" vertex="1">
          <mxGeometry y="146" width="160" height="30" as="geometry" />
        </mxCell>
        <mxCell id="QWrrYXYVFJ42WMiiCsQI-36" value="Цена" style="text;strokeColor=none;fillColor=none;spacingLeft=4;spacingRight=4;overflow=hidden;rotatable=0;points=[[0,0.5],[1,0.5]];portConstraint=eastwest;fontSize=12;whiteSpace=wrap;html=1;" parent="QWrrYXYVFJ42WMiiCsQI-27" vertex="1">
          <mxGeometry y="176" width="160" height="30" as="geometry" />
        </mxCell>
        <mxCell id="QWrrYXYVFJ42WMiiCsQI-38" value="Количество" style="text;strokeColor=none;fillColor=none;spacingLeft=4;spacingRight=4;overflow=hidden;rotatable=0;points=[[0,0.5],[1,0.5]];portConstraint=eastwest;fontSize=12;whiteSpace=wrap;html=1;" parent="QWrrYXYVFJ42WMiiCsQI-27" vertex="1">
          <mxGeometry y="206" width="160" height="30" as="geometry" />
        </mxCell>
        <mxCell id="QWrrYXYVFJ42WMiiCsQI-31" value="Велосипеды" style="swimlane;fontStyle=0;childLayout=stackLayout;horizontal=1;startSize=26;horizontalStack=0;resizeParent=1;resizeParentMax=0;resizeLast=0;collapsible=1;marginBottom=0;align=center;fontSize=14;" parent="1" vertex="1">
          <mxGeometry x="-747" y="663" width="160" height="206" as="geometry" />
        </mxCell>
        <mxCell id="QWrrYXYVFJ42WMiiCsQI-32" value="Рама" style="text;strokeColor=none;fillColor=none;spacingLeft=4;spacingRight=4;overflow=hidden;rotatable=0;points=[[0,0.5],[1,0.5]];portConstraint=eastwest;fontSize=12;whiteSpace=wrap;html=1;" parent="QWrrYXYVFJ42WMiiCsQI-31" vertex="1">
          <mxGeometry y="26" width="160" height="30" as="geometry" />
        </mxCell>
        <mxCell id="QWrrYXYVFJ42WMiiCsQI-40" value="Материал рамы" style="text;strokeColor=none;fillColor=none;spacingLeft=4;spacingRight=4;overflow=hidden;rotatable=0;points=[[0,0.5],[1,0.5]];portConstraint=eastwest;fontSize=12;whiteSpace=wrap;html=1;" parent="QWrrYXYVFJ42WMiiCsQI-31" vertex="1">
          <mxGeometry y="56" width="160" height="30" as="geometry" />
        </mxCell>
        <mxCell id="QWrrYXYVFJ42WMiiCsQI-39" value="Тормоза" style="text;strokeColor=none;fillColor=none;spacingLeft=4;spacingRight=4;overflow=hidden;rotatable=0;points=[[0,0.5],[1,0.5]];portConstraint=eastwest;fontSize=12;whiteSpace=wrap;html=1;" parent="QWrrYXYVFJ42WMiiCsQI-31" vertex="1">
          <mxGeometry y="86" width="160" height="30" as="geometry" />
        </mxCell>
        <mxCell id="QWrrYXYVFJ42WMiiCsQI-33" value="Цвет" style="text;strokeColor=none;fillColor=none;spacingLeft=4;spacingRight=4;overflow=hidden;rotatable=0;points=[[0,0.5],[1,0.5]];portConstraint=eastwest;fontSize=12;whiteSpace=wrap;html=1;" parent="QWrrYXYVFJ42WMiiCsQI-31" vertex="1">
          <mxGeometry y="116" width="160" height="30" as="geometry" />
        </mxCell>
        <mxCell id="QWrrYXYVFJ42WMiiCsQI-34" value="Цена" style="text;strokeColor=none;fillColor=none;spacingLeft=4;spacingRight=4;overflow=hidden;rotatable=0;points=[[0,0.5],[1,0.5]];portConstraint=eastwest;fontSize=12;whiteSpace=wrap;html=1;" parent="QWrrYXYVFJ42WMiiCsQI-31" vertex="1">
          <mxGeometry y="146" width="160" height="30" as="geometry" />
        </mxCell>
        <mxCell id="QWrrYXYVFJ42WMiiCsQI-42" value="Количество" style="text;strokeColor=none;fillColor=none;spacingLeft=4;spacingRight=4;overflow=hidden;rotatable=0;points=[[0,0.5],[1,0.5]];portConstraint=eastwest;fontSize=12;whiteSpace=wrap;html=1;" parent="QWrrYXYVFJ42WMiiCsQI-31" vertex="1">
          <mxGeometry y="176" width="160" height="30" as="geometry" />
        </mxCell>
        <mxCell id="QWrrYXYVFJ42WMiiCsQI-45" value="&lt;font style=&quot;font-size: 14px;&quot;&gt;База данных&amp;nbsp;Sklad&lt;/font&gt;" style="text;html=1;align=center;verticalAlign=middle;resizable=0;points=[];autosize=1;strokeColor=none;fillColor=none;" parent="1" vertex="1">
          <mxGeometry x="-737" y="490" width="140" height="29" as="geometry" />
        </mxCell>
        <mxCell id="l9B2nNbqnlKcsOlghPXQ-1" value="&lt;div style=&quot;color: rgb(8, 8, 8); font-family: &amp;quot;JetBrains Mono&amp;quot;, monospace;&quot;&gt;&lt;pre&gt;MainWindow&lt;/pre&gt;&lt;/div&gt;" style="swimlane;fontStyle=0;childLayout=stackLayout;horizontal=1;startSize=30;horizontalStack=0;resizeParent=1;resizeParentMax=0;resizeLast=0;collapsible=1;marginBottom=0;whiteSpace=wrap;html=1;" parent="1" vertex="1">
          <mxGeometry x="-125" y="995" width="140" height="90" as="geometry" />
        </mxCell>
        <mxCell id="l9B2nNbqnlKcsOlghPXQ-2" value="-&amp;nbsp;Button_enter" style="text;strokeColor=none;fillColor=none;align=left;verticalAlign=middle;spacingLeft=4;spacingRight=4;overflow=hidden;points=[[0,0.5],[1,0.5]];portConstraint=eastwest;rotatable=0;whiteSpace=wrap;html=1;" parent="l9B2nNbqnlKcsOlghPXQ-1" vertex="1">
          <mxGeometry y="30" width="140" height="30" as="geometry" />
        </mxCell>
        <mxCell id="l9B2nNbqnlKcsOlghPXQ-4" value="+ __init__()" style="text;strokeColor=none;fillColor=none;align=left;verticalAlign=middle;spacingLeft=4;spacingRight=4;overflow=hidden;points=[[0,0.5],[1,0.5]];portConstraint=eastwest;rotatable=0;whiteSpace=wrap;html=1;" parent="l9B2nNbqnlKcsOlghPXQ-1" vertex="1">
          <mxGeometry y="60" width="140" height="30" as="geometry" />
        </mxCell>
        <mxCell id="l9B2nNbqnlKcsOlghPXQ-5" value="&lt;div style=&quot;color: rgb(8, 8, 8); font-family: &amp;quot;JetBrains Mono&amp;quot;, monospace;&quot;&gt;&lt;pre&gt;SecondWindow&lt;/pre&gt;&lt;/div&gt;" style="swimlane;fontStyle=0;childLayout=stackLayout;horizontal=1;startSize=30;horizontalStack=0;resizeParent=1;resizeParentMax=0;resizeLast=0;collapsible=1;marginBottom=0;whiteSpace=wrap;html=1;" parent="1" vertex="1">
          <mxGeometry x="195" y="993" width="140" height="90" as="geometry" />
        </mxCell>
        <mxCell id="l9B2nNbqnlKcsOlghPXQ-6" value="-&amp;nbsp;Forward_Button" style="text;strokeColor=none;fillColor=none;align=left;verticalAlign=middle;spacingLeft=4;spacingRight=4;overflow=hidden;points=[[0,0.5],[1,0.5]];portConstraint=eastwest;rotatable=0;whiteSpace=wrap;html=1;" parent="l9B2nNbqnlKcsOlghPXQ-5" vertex="1">
          <mxGeometry y="30" width="140" height="30" as="geometry" />
        </mxCell>
        <mxCell id="l9B2nNbqnlKcsOlghPXQ-8" value="+ __init__()" style="text;strokeColor=none;fillColor=none;align=left;verticalAlign=middle;spacingLeft=4;spacingRight=4;overflow=hidden;points=[[0,0.5],[1,0.5]];portConstraint=eastwest;rotatable=0;whiteSpace=wrap;html=1;" parent="l9B2nNbqnlKcsOlghPXQ-5" vertex="1">
          <mxGeometry y="60" width="140" height="30" as="geometry" />
        </mxCell>
        <mxCell id="l9B2nNbqnlKcsOlghPXQ-9" value="&lt;div style=&quot;color: rgb(8, 8, 8); font-family: &amp;quot;JetBrains Mono&amp;quot;, monospace;&quot;&gt;&lt;pre&gt;smartphonesWindow&lt;/pre&gt;&lt;/div&gt;" style="swimlane;fontStyle=0;childLayout=stackLayout;horizontal=1;startSize=30;horizontalStack=0;resizeParent=1;resizeParentMax=0;resizeLast=0;collapsible=1;marginBottom=0;whiteSpace=wrap;html=1;" parent="1" vertex="1">
          <mxGeometry x="498" y="754" width="158" height="270" as="geometry" />
        </mxCell>
        <mxCell id="l9B2nNbqnlKcsOlghPXQ-10" value="- connection" style="text;strokeColor=none;fillColor=none;align=left;verticalAlign=middle;spacingLeft=4;spacingRight=4;overflow=hidden;points=[[0,0.5],[1,0.5]];portConstraint=eastwest;rotatable=0;whiteSpace=wrap;html=1;" parent="l9B2nNbqnlKcsOlghPXQ-9" vertex="1">
          <mxGeometry y="30" width="158" height="30" as="geometry" />
        </mxCell>
        <mxCell id="l9B2nNbqnlKcsOlghPXQ-11" value="- model" style="text;strokeColor=none;fillColor=none;align=left;verticalAlign=middle;spacingLeft=4;spacingRight=4;overflow=hidden;points=[[0,0.5],[1,0.5]];portConstraint=eastwest;rotatable=0;whiteSpace=wrap;html=1;" parent="l9B2nNbqnlKcsOlghPXQ-9" vertex="1">
          <mxGeometry y="60" width="158" height="30" as="geometry" />
        </mxCell>
        <mxCell id="5LRAOqItPmNHGHG5xUAR-4" value="- tableView_smartphones" style="text;strokeColor=none;fillColor=none;align=left;verticalAlign=middle;spacingLeft=4;spacingRight=4;overflow=hidden;points=[[0,0.5],[1,0.5]];portConstraint=eastwest;rotatable=0;whiteSpace=wrap;html=1;" vertex="1" parent="l9B2nNbqnlKcsOlghPXQ-9">
          <mxGeometry y="90" width="158" height="30" as="geometry" />
        </mxCell>
        <mxCell id="5LRAOqItPmNHGHG5xUAR-3" value="- connection_sqlite" style="text;strokeColor=none;fillColor=none;align=left;verticalAlign=middle;spacingLeft=4;spacingRight=4;overflow=hidden;points=[[0,0.5],[1,0.5]];portConstraint=eastwest;rotatable=0;whiteSpace=wrap;html=1;" vertex="1" parent="l9B2nNbqnlKcsOlghPXQ-9">
          <mxGeometry y="120" width="158" height="30" as="geometry" />
        </mxCell>
        <mxCell id="5LRAOqItPmNHGHG5xUAR-2" value="- create_table()" style="text;strokeColor=none;fillColor=none;align=left;verticalAlign=middle;spacingLeft=4;spacingRight=4;overflow=hidden;points=[[0,0.5],[1,0.5]];portConstraint=eastwest;rotatable=0;whiteSpace=wrap;html=1;" vertex="1" parent="l9B2nNbqnlKcsOlghPXQ-9">
          <mxGeometry y="150" width="158" height="30" as="geometry" />
        </mxCell>
        <mxCell id="5LRAOqItPmNHGHG5xUAR-7" value="- save_data()" style="text;strokeColor=none;fillColor=none;align=left;verticalAlign=middle;spacingLeft=4;spacingRight=4;overflow=hidden;points=[[0,0.5],[1,0.5]];portConstraint=eastwest;rotatable=0;whiteSpace=wrap;html=1;" vertex="1" parent="l9B2nNbqnlKcsOlghPXQ-9">
          <mxGeometry y="180" width="158" height="30" as="geometry" />
        </mxCell>
        <mxCell id="5LRAOqItPmNHGHG5xUAR-6" value="- remove_row()" style="text;strokeColor=none;fillColor=none;align=left;verticalAlign=middle;spacingLeft=4;spacingRight=4;overflow=hidden;points=[[0,0.5],[1,0.5]];portConstraint=eastwest;rotatable=0;whiteSpace=wrap;html=1;" vertex="1" parent="l9B2nNbqnlKcsOlghPXQ-9">
          <mxGeometry y="210" width="158" height="30" as="geometry" />
        </mxCell>
        <mxCell id="5LRAOqItPmNHGHG5xUAR-8" value="+ __init__()" style="text;strokeColor=none;fillColor=none;align=left;verticalAlign=middle;spacingLeft=4;spacingRight=4;overflow=hidden;points=[[0,0.5],[1,0.5]];portConstraint=eastwest;rotatable=0;whiteSpace=wrap;html=1;" vertex="1" parent="l9B2nNbqnlKcsOlghPXQ-9">
          <mxGeometry y="240" width="158" height="30" as="geometry" />
        </mxCell>
        <mxCell id="l9B2nNbqnlKcsOlghPXQ-13" value="&lt;div style=&quot;color: rgb(8, 8, 8); font-family: &amp;quot;JetBrains Mono&amp;quot;, monospace;&quot;&gt;&lt;pre&gt;bicyclesWindow&lt;/pre&gt;&lt;/div&gt;" style="swimlane;fontStyle=0;childLayout=stackLayout;horizontal=1;startSize=30;horizontalStack=0;resizeParent=1;resizeParentMax=0;resizeLast=0;collapsible=1;marginBottom=0;whiteSpace=wrap;html=1;" parent="1" vertex="1">
          <mxGeometry x="498" y="1046" width="159" height="120" as="geometry" />
        </mxCell>
        <mxCell id="l9B2nNbqnlKcsOlghPXQ-14" value="Item 1" style="text;strokeColor=none;fillColor=none;align=left;verticalAlign=middle;spacingLeft=4;spacingRight=4;overflow=hidden;points=[[0,0.5],[1,0.5]];portConstraint=eastwest;rotatable=0;whiteSpace=wrap;html=1;" parent="l9B2nNbqnlKcsOlghPXQ-13" vertex="1">
          <mxGeometry y="30" width="159" height="30" as="geometry" />
        </mxCell>
        <mxCell id="l9B2nNbqnlKcsOlghPXQ-15" value="Item 2" style="text;strokeColor=none;fillColor=none;align=left;verticalAlign=middle;spacingLeft=4;spacingRight=4;overflow=hidden;points=[[0,0.5],[1,0.5]];portConstraint=eastwest;rotatable=0;whiteSpace=wrap;html=1;" parent="l9B2nNbqnlKcsOlghPXQ-13" vertex="1">
          <mxGeometry y="60" width="159" height="30" as="geometry" />
        </mxCell>
        <mxCell id="l9B2nNbqnlKcsOlghPXQ-16" value="Item 3" style="text;strokeColor=none;fillColor=none;align=left;verticalAlign=middle;spacingLeft=4;spacingRight=4;overflow=hidden;points=[[0,0.5],[1,0.5]];portConstraint=eastwest;rotatable=0;whiteSpace=wrap;html=1;" parent="l9B2nNbqnlKcsOlghPXQ-13" vertex="1">
          <mxGeometry y="90" width="159" height="30" as="geometry" />
        </mxCell>
        <mxCell id="l9B2nNbqnlKcsOlghPXQ-17" value="" style="endArrow=classic;html=1;rounded=0;" parent="1" edge="1">
          <mxGeometry width="50" height="50" relative="1" as="geometry">
            <mxPoint x="50" y="1067" as="sourcePoint" />
            <mxPoint x="151" y="1067" as="targetPoint" />
          </mxGeometry>
        </mxCell>
        <mxCell id="l9B2nNbqnlKcsOlghPXQ-18" value="" style="endArrow=classic;html=1;rounded=0;" parent="1" edge="1">
          <mxGeometry width="50" height="50" relative="1" as="geometry">
            <mxPoint x="368" y="1036" as="sourcePoint" />
            <mxPoint x="466" y="986" as="targetPoint" />
          </mxGeometry>
        </mxCell>
        <mxCell id="l9B2nNbqnlKcsOlghPXQ-19" value="" style="endArrow=classic;html=1;rounded=0;" parent="1" edge="1">
          <mxGeometry width="50" height="50" relative="1" as="geometry">
            <mxPoint x="383" y="1092" as="sourcePoint" />
            <mxPoint x="473" y="1115" as="targetPoint" />
          </mxGeometry>
        </mxCell>
        <mxCell id="JSsI0XIShDVwkBqloAJm-1" value="Материалы" style="swimlane;fontStyle=0;childLayout=stackLayout;horizontal=1;startSize=30;horizontalStack=0;resizeParent=1;resizeParentMax=0;resizeLast=0;collapsible=1;marginBottom=0;whiteSpace=wrap;html=1;" parent="1" vertex="1">
          <mxGeometry x="-500" y="721" width="140" height="120" as="geometry" />
        </mxCell>
        <mxCell id="JSsI0XIShDVwkBqloAJm-2" value="Сталь" style="text;strokeColor=none;fillColor=none;align=left;verticalAlign=middle;spacingLeft=4;spacingRight=4;overflow=hidden;points=[[0,0.5],[1,0.5]];portConstraint=eastwest;rotatable=0;whiteSpace=wrap;html=1;" parent="JSsI0XIShDVwkBqloAJm-1" vertex="1">
          <mxGeometry y="30" width="140" height="30" as="geometry" />
        </mxCell>
        <mxCell id="JSsI0XIShDVwkBqloAJm-3" value="Алюминий" style="text;strokeColor=none;fillColor=none;align=left;verticalAlign=middle;spacingLeft=4;spacingRight=4;overflow=hidden;points=[[0,0.5],[1,0.5]];portConstraint=eastwest;rotatable=0;whiteSpace=wrap;html=1;" parent="JSsI0XIShDVwkBqloAJm-1" vertex="1">
          <mxGeometry y="60" width="140" height="30" as="geometry" />
        </mxCell>
        <mxCell id="JSsI0XIShDVwkBqloAJm-4" value="Титан" style="text;strokeColor=none;fillColor=none;align=left;verticalAlign=middle;spacingLeft=4;spacingRight=4;overflow=hidden;points=[[0,0.5],[1,0.5]];portConstraint=eastwest;rotatable=0;whiteSpace=wrap;html=1;" parent="JSsI0XIShDVwkBqloAJm-1" vertex="1">
          <mxGeometry y="90" width="140" height="30" as="geometry" />
        </mxCell>
        <mxCell id="JSsI0XIShDVwkBqloAJm-6" style="edgeStyle=orthogonalEdgeStyle;rounded=0;orthogonalLoop=1;jettySize=auto;html=1;exitX=1;exitY=0.5;exitDx=0;exitDy=0;entryX=0.007;entryY=0.105;entryDx=0;entryDy=0;entryPerimeter=0;" parent="1" source="QWrrYXYVFJ42WMiiCsQI-40" target="JSsI0XIShDVwkBqloAJm-1" edge="1">
          <mxGeometry relative="1" as="geometry" />
        </mxCell>
        <mxCell id="smAhu-yRAPGuOP_2K9Kv-1" value="" style="shape=image;verticalLabelPosition=bottom;labelBackgroundColor=default;verticalAlign=top;aspect=fixed;imageAspect=0;image=data:image/png,iVBORw0KGgoAAAANSUhEUgAAAkUAAACfCAYAAAD3RK2hAAAAAXNSR0IArs4c6QAAAARnQU1BAACxjwv8YQUAAAAJcEhZcwAADsMAAA7DAcdvqGQAABtGSURBVHhe7d09cuLM1sDx87xrAVddihXgFVAkjkjJTOibOHNIpsSEPNmkREoYVjCzAoqqi7QXv+e0xJdoYWGEQPD/1XgM7dZX97HoluD4n+bTf75W/1sKAADAI/u/9DsAAMBDY1AEAACgGBQBAAAoBkUAAACKQREAAIBiUAQAAKAYFAEAACgGRQAAAIpBEQAAgGJQBAAAoBgUAQAAKAZFAAAAikERAACAYlAEAACgGBQBAAAoBkUAAADKMyiKZT6e6/8oTx3blDgoH3GAayL+UAfX7XPvlaLVcpU+Qlnq2KbEQfmIA1wT8Yc6uGqfN5/+87X2+7Xz1el0vrTYfX/9jLQ0+vpMyzuvn/rMUFa0zN+mt404KL+MOKDsmmXEH2V1KLuFOP3HBkWr/y11H9ZiGQ9n0pu8SSMtwbnq2KbEQfmIA1wT8Yc6uG6f80ZrAAAA5blSBAAA8Hi4UgQAAKAYFAEAAChvnqLxcKz/ozx1bFPioHzEQdmIzzzEWhXHHsexfqVP8AO3F6cXvVIUj4fyPE4Odz5+lmH62Cuey/CfoczTp4es8XZ/rvWH6bNvl91n+3VsV3COWObaT8/Pz/o1LtwnP5X0JbFxb+K59sN3naZ1BhftLOKqtvJi48R+Oy6WKJpJMDh1fcTVLbv87bPlzF4mZbXzXu54Ppe5fW2G2FojEnn5/S7NtMSG324U7upavYY8JT/JKLJsSgPOtjvb3Ze0bL0vsdbfLmHr2Fke35sHEr5M5M+fP/r1Jt20eN322z432neuj7bZS7P9UawviY2rW7dV2ibJDDppO2vrdUsl7b5tU2tHV8ctn7SvPZ6FC5mukrquqquTrGuv3yQ6KDs1hrb7otZlrh5xVW/Z2PD0m7N/HrL+2fSA9tFerO7Us/jodnvSco93EFe1dtFBUaQd1m8tZTYOZdnqp6XaMc2m/mvKajBIR7kNK5LVKNAwTkWBNAf63H4QruuZ7OW2gsvGYxkGtunmNiBtNpGW6XBfbLAehcl6LBDtlyoIN2tFEc2WLEY609k7IYzleaedk77UGVFSmJS7osP+KNyXDrFxFa5/V66tms0ks0gUNGUwsyYeyExWEiQNvenvze9+PJNRcyBBpOWrwM3uGw3tB32laT8ldRu2yky/rSfWf6fhfl+eEEMHMek5jgRxVUe7sZHEi6ffPOehRhRurjLFs4GEkcWC53zlQ1zV3sWvFD29vcjyvzr67YksltYpGhR2yTEIZGeQ606EWZ3+u3T1jKivs2KL2vfVfCbTxVRm85VIK1mmyLLxbKo70dW6SZmJdRX996Ss+66DtlWcbENH3EEz0Bf27TZQUONN/vx5F5kF8vycXAZ2bb8IXZ+HC5HpTH9J56Es0j6y9rdTha8/TJG+dP1GbFxHoyd9bfdBMNt5selIv9eUVrsv+i3l/92X1w+ZdDUG3iby680iQfvB/SCJjbV1v3Vf2rLIi41TYigbk57jcH1OXNWSL14O+s1zHtIFpD21OxyxzKZ90e7y1/Mgrurv8rfPpCuTr4l26pO07amNaFc9mUwm8t53JSdZhkv5+NV3338qWmq0OgsXZE601GeJZRBK61MH5oFu4ykv/JFPfzHtBa6/kNDN0HTW/zFxfT6x22ruhU9tGn/N3x/HbPuS2LiehrxZv056sho8J7NZnwK/+0VbtJ3b9sVj6DAm/cdBXNVffryog/NQV+NzKsE4kGm/t43Jg3p+xFW9XXBQFMvKd0ay4es0kOFQT5DTtIJdDhxqAP5dyEjLc0+q2tX/yosOsHrSWvybdHLBZRs9HT2Phm67YTI805nph5Y9u7LnUcvNUnXsJv8uWtJ7e7EHDK5PZG/8e9b2TPq3bxMa186ttJ2Hw7HOWrRidyIfMtrUtX7z9YePry+JjSvS2ai1k2tr6Usv79zr+93PYX1it2Gt7voN13/TZYdhK5m9exSOIV9Meo+DuKqrg3jx9ZvnPGRc/P13If11MPvqedZHXN2B3T8Im7A/0rb+g20oRx3blDgoH3HwY79fvzo1+COmt4NYO0v0+dV5/Z0+weXcXpxWcPsMAM63viYIXJKlj7E3S/+a5FyOxF3jb58BAAAorhQBAAAoBkUAAADKMyiKZT7eyeiJEtSxTYmD8hEHuCbiD3Vw3T73XilaLVfpI5Sljm1KHJSPOMA1EX+og6v2+e5H8n+/dr46nc6XFrvvr+4jsPaRuaS8s/noHGVFy/xtetuIg/LLiAPKrllG/FFWh7JbiFPPp8/s77HMpDd5K5xdFt+pY5sSB+UjDnBNxB/q4Lp9zhutAQAAFHmKAAAAFFeKAAAAFIMiAAAA5c1TNB6O9X9cVh3bmdioBrGBW0NMoq5Oi4PLXimaD+X5+dl9DcfztNAv1rrZKr6yKlxruw8lHsswjY3nZ23vK5y54vGR7dY0dnEeb7/Fcxn+MxS6E9dATFbr8rfP+r/kz58/8i4jGVoPxrHM1y9E2rH6VL/mMgsXMl3NZT7PL3OLaLk9n28L9J9+WdlmxTkKLJu33YNlddxpj5P90e9pKYpbtD9cbPz5M5G39LOXB/3raed4r7318brvXD8eX9ZJtzH77vMFtxS7D0fb2rWLtt+6pEj75bVpdllnfxv+ftM6kcjL73dp2tMUffmIiMlHUMF7iiLXWcGyLS9dexrIaJZ0UDwbSaCd22g05akl0n5qSrPZ1Of+Mpu9DwJxzyUYJC9Uur6mFkZWFg7yZ/7xWJ53lnX1PMt6t+tbNp7JqDnQ/dd6q0AGuRvGMe6Xdt10vv71tHMUap/Zj9yCkQShe2YLumVXgyN9ZFeo0m08aZXjbiR2H47OgpNfuKS9XFHB9vOV+X5/Pdvw9ps0rIqsRknMOfTlAyImH8UPB0V2jy699fHdvbrlSqJoJbJYyCq3onZy+r2R9Lp7nC2LdTX996573n3va1QkK+z036WrZU0NnuUmSvbFs6nuQyhBEIgOvGWavrgdLuvZbs6y8vohk67We5vIr/Wljod3QmwsLDYi/dKBkT7N699sO1tfrWyw0gx0VqQLtazHtP2jmeujvQtAmWVdX+oIx7Zh6znqRmL3fhSMjXkoi7RdrL2sBU9pv2yZ9/fXsw1/X+ozfWHaRV/eE2IS+344KGrI28Rue+jXd1knWz3pdt9k8tHeDiZ+bLHt2Gipz07T/pjIZKJftt8nDmK+W/a0td2zE2Kj/aSx0dWv9Qng+/5dr28ZhNL61AlQoEOgJy21mdKq5/rovd9Oa+3L7ku0/CaCbih278MJsXFwBr/A7/7BNoqiL+8HMYl9F7999ncayHA4lOewlVxN6b5IezpwZQMdLK81en1ZjIaufP2msmxZ4+1DZPScrG+Urq8gW7aVLjvUGcGxW6y+7RZdFj9XtH8bTyL/LlrSe3uxB8mFIpsKpbE2mOafEqxvJe3bUPyDp7Vbid2H053Ih4x05p62n/6+lf6779mGq5vtS7vdOgxk+nehYXP+vqCmiMmHwd8+u5o6tjOxUQ1iA7eGmERdnRYHFbzRumpzGdv94b0vHYmnPwX2ES8AgAR/+wwAAEB5rhTZpabi2R9RRB3blDgoH3FQtr2UDvgBYrJsxGRVLhMHd3j7DMC9OJp1XE+HkaVhGJDZF9UhJu8bgyIAlUhm0EnGXcuyu35dOcjEa9KyvazjB/Ua0u32pJU+A05FTCKLQRGASkRBUwYzS647kJmsJLDpti8Try/ruDcDMHAeYhJZDIoAnMnu7aef3Dt6j78j/V5TWu2+6DfHl4nXl3U8N6s84EVM4mcYFAE40wlZgQ8cz8S7m3X8nIz0eDTEJH6GQRGAq/Fl4vVlHfdmAPZk9gXORUw+NjJaV6KObUoclI84wK0hJlFXl4kDrhQBAAAoMloDAAAoz5UiuyRVtwynt66ObUoclI84KMq3PTIF+9ulfMRpUbcep1XsxvWO9zJ9zu0zAJWJ50MZf5fq1/LEHLxDtUimYD1JPu/+fC7D5/SkGevjf243y/DP2wWXcBdxmhcvpf4u3F8GbwZFACphWYJn4UKmqyQL8Hp2aZmED7IHS5SWr8tyMgXvZRRuSK+/kHB9dp6Hsuj3tDSWeSTy8vtd0lQ0ib1l7anOeN0jo4832/ZYL5vWyc2M7Opst2HrdXXc8sn2vO3i6iTr2raBybZLsvzeNvKWzdYz67K9bTy2u4rTg/3L2YaVu3pJ7FobbNaq290e8369YsebWpfdeKwxKAJQiUajKU969mw/NV0W4Ib7yIieIPWxPV8NtlmB/05DiSxTcJhmFPbxZBS2j04v0lebub6w9Xu2kYZtQlajQF8iUp5lozD5uQ0o7MUkCDe197llV27ZZjP53Is3M7Lv2OKZjJoDCSItXwVuJu9tlyiQ5kD3x/Zvpw1228Wtz64GZLMvZ5ZNtuvJvuw5DtxRnKrD/fNsw12pchtJtqMaUbi5yhTPBhJGtn+H9bxqHmsMigCcye7tF8kerCfk9LtlBk7od7v8HgSy+3GPTv9dulqn+9KWxcq/Rm9G4UZP+lqm81Et64t7rVH2QrfLt6xlKl7pbDZoBjrDXYm0ck78bhtTHYzMdl5YDjMj5x2bvH7IpKtt8DZxOXCs3mG7+NtgXWb7agkGfdmXvfVy2yp7HPfsweJU+fYvu43kSlVSz47X7Ur3RdrTmbZRLLNpXzTE/PU86h5rDIoAnOmM7MF2pWPVc1mB3/tJUrys9lP+Gg8zCqe3JsbrWxL5fNmIl0EorU+dWAf60pe7XT1ed6w9WQ2eN1cNDhQ4tmP7tyu/DY5nX97la6tCx3E3Hi1O9x3bv20QrXX1OKcSjAOZ7u7fQT2/OscagyIAlXG3DdLMwO6NrDbtnQbu+WC6fUn/m5YNw1YyS40PMwV7Mwort43/rm9JqILLNp5E/l20pPf2Yg/yJ+A6S0+W03XKdpZ/IOfYfA7aRR20gYcv+7KPP/tyweN4QHcRp6rI/kl3Ih8ykme3jbRMHeyfr17R461TrFmeon3R1+frp/6P8tSxTYmD8hEHKOj361fn81qtTpxCRZ9fndff6ZNbdJk+50oRAHjNZWzvP9n70plv+tNL89+kAbLKj9P5WNcRiPya5FyivGNktAYAAFCeK0WXyRL52OrYpsRB+YgDaIvGlkcofXJ1xCRuLSaLukwccPsMwN3zZii2N39WnuU6JwOwZ18KZVVGbRGTt4lBEYAKZTPiaomefPey37pZq2XqtfIjZSa7rHOYnfcwQ7HWiQ4z+xbODu2zXta3f7ZdV9DwZAA+3Je8rMr+48V5iElicotBEYCK6MwzmxHX8r/sZL/NzchcNEuzZxv+DMUNq7Kf2bfovvi4fclk7N0pkzAUy2Hnd7gv3n32Hi/OQ0z6PW5MMigCcCa7t59+6uXYPX5PRtyiGZl9Zd7Mud6su7pM+t3K1rKZfU/ZlwOejL22f+2XN7c+W/aY7L749tl7vMhBTBKTP8OgCMCZTsgUfHAGL56R2ceX7Tf/VeI75+zL8Yy90fLUI/PzHi88iEli8mcYFAGohicjbtGMzD7ezLnHsvPuZiiO/Zl4f7ov9r6KZD+2GXttm7pyVx6usw55tustU9l99h4vzkNMEpNZZLSuAhliYYiDRxV9vn5dLUH1UcTko7rdmCzqMnHAlSIAKOy6Wa6BQ8RkmchoDQAAoDxXisgWWr46tilxUD7iALeGmERdXSYOuH0GAACgGBQBqFAme3Csz9dTvXgns69l7HWZcvW7+6FaZ87d+YjLQbbfvGWBXMQkthgUAaiIJ3twFMgoTfgWz0YSWE6WeCaj5kAfa71VIAP7PHDsyc7ry/brWxbIRUxiH4MiAGeye/vpp16O3eP3ZvbN8fohk67WeZskuVl82Xlzsv0eLIsHREziZxgUATjTOdmDv5esz5ed9/tsv7z8PCpiEj/DoAhANXyZfbsv0p4O3PPBNKnmFXuy856T7RcwxCQyPHmK7LLjTHrfja5xgjq2KXFQPuIAt4aYRF1dJg64UgQAAKDIaA0AAKA8V4rskhTZQstVxzYlDspHHNSR79hjl3cmffItq7utHO/ktLk+YrKOfMd+PzFZ1GXigNtnAGorng9l/MO/fFloWcs7c5BXJpYomkkwGBb6o5vx2HLUbN/10JBAhgfrxL0gJuuNQRGACmWyB9tzN8PNZPs9yApsRftltswsXMh0lZRvqnqWzcpbNruNRJSWr8sa0u32pJU+2/BtNx7LYGk5atLnpjuRl2WQfoQb10dMEpNbDIoAVMSTPTg3U/A2K3Byotb/0uVWg6Ss0WjKk74KtJ+S8oZNfL3LHvIu69mG+TsNJbL1hWmGYp+c7cazqUvml9V9EZmmWZNxTcTkGjGZYFAE4Ex2b/+M7MGZbL920pZFKEEQiE6c0xO11rbbA1q2/VhIQ5KXsWR9xr+sz+Gy/m2IdNJ97r60ZbHOUJyRt90o7zMsTX31+0HSQBRFTBKTP8OgCMCZyssevF62/TGRyUS/bJ2WAM/eR7HqubL3fjut5XewbFEFttF+yl/fqdttt5KXQFwCMWmIydMxKAJQDV/2YA/LCtxKswIPdZbv3jZhs9hp4MoGU532phq9vixG6frmOcvmyC6bt42/adkwbMm73XWIx/o8kOnfhYxsWd1G3nZtJu+7MuBm8UdezFARYnKDmExZnqJ90dfn66f+j/LUsU2Jg/IRB49H26/z+vU7feZEn1+d172SKyImH8+tx2RRl4kDrhQBuGNzGdv7Sva+dNac/vTy7I+GvshqcwkilvlM5GPvoz94LMTkLSOjNQAAgPJcKSJbaPnq2KbEQfmIg/q6hwzAPsRkfd1rTBZ1mTjg9hmAuxSP8984a07JPEwGYJSBmLx9DIoAVGedYXdnVuvLCrz5qZZtqhbICuyk9WY77woomnnYmz04JgPwXSMmsYNBEYBquAy7K5dht9lcz3D1DJ7J2NuIws3fdopnAwktjYxb1qo2j2YFtnrDtN5TWuTdxgnZg+2jymQAvlPEJDIYFAE4k93bTz9Fc+wef6Mn/cVUBsFMtuny9MyfzdirZ/b2dKbrmUsw7bs8LHnZebNcvZeuywhsKV4Snm1oWdHswWQAriNiEj/DoAjAmYpmD7aPAludns56n5NZrzdjb1cfT2U2DkX6vc36Ts3OGy3TZHdFMw8XrbeDDMC3ipjEzzAoAlCNeJ5m1w1kKn3p2WtITsZey+w7/e9CWq6SPi+YFdiWkzQjcCjpi8iRbRTJHkwG4DtGTCKLjNZVIGssDHFQT9oGd5EB2IeYrKd7jsmiLhMHXCkCUENVZgUmAzCKICbvARmtAQAAlOdKEdlCy1fHNiUOykcc3Jd7yChMTN6XR8pyfZk44PYZAPwAGYVxa4jJ8zEoAlARywRsM1nL0Kvf01L7BNB+Zt+0jn23zL6u1Mqz9c7JMuzfl4Nt7O6nPtrMvGMyCt8HYhL7GBQBqEY8k1HTZrJNaa6CJEOwJytwFDRlMBMJBwOZyUoCK7R8LTv1hnOdBZ+VZdizL55tRGHgkvoltyQiCdxGbHEyCt8FYhIZDIoAnMnu7aeftvnuHv+rzWQb0nibyK+3hjuRH2YF7ki/15RWuy/6zYlX4k74lum3+94XWWm9M7IMO9l98WzD0sSsdKYeNAOdqWuFNDEeGYVvHTG5QUyehEERgDMVzR68b12vWFbgxfa8rmf/JI1dOVmGTVLLtw19PQlCaX2KhIG+6hRIjEdG4VtATO4iJotjUATgagpnBdZ6ktZ7HrXcLNqV/zDLsI9vG40nkX8XLem9vdiD9aScjMJ3jJh8cGS0rgJZY2GIg/uh7XIXGYWJyftxLzFZ1GXigCtFAO7YpbIMk1EYP0VM3jIyWgMAACjPlSKyhZavjm1KHJSPOHg0t99uxOSjqWe7Vdfn3D4DcLPi8fBo4rl4rj8//77DZViOmWM7v8N3HDd9bA+MmEyf3CkGRQCqEVvG3vXjuT11ZS5bsGXs3f1YTprFd7ZzZz+ps5PZV+vMwoVMV0l5WrxZ9nj2YLWut7Nd3zY2P9Wy3f0vtA2J0nWm9TLrsMV9x5F3bNnsxvYDb/uhGG27bH/ktmna9sTktswtkt2ufq9zTDIoAlCNKJBR+pHheDaSwPKvaFlzEEhkGXvDJGOvZQAepll8n1xto8vpcytbDZKswI2G/rwl0n5Kyhv2qePC2YOt3srVazbXH1f2bOOcDMXq7zTcPzZPG/iOw3tsNsvPZDfOtt+xfYEHMUlMZjAoAnAmu9+fformB/f9O/136eoZ1vKsLFY6w7S8Ki9JFl9LxpvQM3A0c1mBtxN1/Xn63eqawtmDGz3pL6Z6Qp+5P5mQ8GzjzAzF2WPzOzwOX5k3g7Jab4PExbuIyTzE5HEMigCc6WfZg33amSRz0TLN4Wsz0lXPZQV+77eTshzFsgfbx5dtf3s6A39OZrPebZSXoTh7bKfzZzeGDzFZBDF5iEERgGq4Ge7AZecd6MR27e80SLL9hi0367WMwDKy7L9DCSV9IbApZ1pvMN2eeq3uIq1rbwAtnD04nqd1AplKX1zy4SPb+GmG4uyx5bVB9jh8ZXkZlHEGYpKYzCKjdRXIGgtDHBz4/frV+STKroeYPEBM3qDq4pQrRQCu6viNh3NdKnvwriq2UdQt7Ut9EZNlqldMktEaAABAea4UkS20fHVsU+KgfMRBdZJcKWtxDfOlVIOYrA4xWa7LxAG3zwBcVdEsuadk043HAwmi7Zs+GxLIsG4JU3A1xOTjYlAEoDrr7LfpLDk3S66ro19pQV69zfp2ZuCWyG6w/JC9Pw7encjLMqhdIjlUgJjEDgZFAKrhydjrzZJrF8RdnZ9lCrZEdpZQLqv7cjypHR4QMYkMBkUAqpGTsdeXOfecTMFR3udG6pheF5dFTCKDQRGAingy9vp4s/j6nZrFt91KXsaABDGJfQyKAFQj9mTsVQeZc8/MFGx/08l3S8LN4s/+swa4K8QksshoXQWyxsIQB9XQfe68fv1OnznR51fnda8EDjFZDWKyfJeJA64UAbgzdkvkRVabeyGxzGciH3sf/QGqREzWBRmtAQAAFFeKAAAAFIMiAAAA5RkUxTIfzy1VFUpTxzYlDspHHOCaiD/UwXX73HulaLVcpY9Qljq2KXFQPuIA10T8oQ6u2ue7H8n//dr56nQ6X1rsvr9+2ofd7GNvSXln8/E3yoqW+dv0thEH5ZcRB5Rds4z4o6wOZbcQp55Pn9mf459Jb/ImpJQqSx3blDgoH3GAayL+UAfX7XPeaA0AAKDIUwQAAKC4UgQAAKAYFAEAACgGRQAAAIpBEQAAgGJQBAAAoBgUAQAAiMj/A7wMxcyuKeqBAAAAAElFTkSuQmCC;" parent="1" vertex="1">
          <mxGeometry x="-200.00333333333305" y="770" width="581" height="159" as="geometry" />
        </mxCell>
        <mxCell id="5LRAOqItPmNHGHG5xUAR-9" value="&lt;div style=&quot;color: rgb(8, 8, 8); font-family: &amp;quot;JetBrains Mono&amp;quot;, monospace;&quot;&gt;&lt;pre&gt;smartphonesWindow&lt;/pre&gt;&lt;/div&gt;" style="swimlane;fontStyle=0;childLayout=stackLayout;horizontal=1;startSize=30;horizontalStack=0;resizeParent=1;resizeParentMax=0;resizeLast=0;collapsible=1;marginBottom=0;whiteSpace=wrap;html=1;" vertex="1" parent="1">
          <mxGeometry x="498.5" y="1217" width="158" height="270" as="geometry" />
        </mxCell>
        <mxCell id="5LRAOqItPmNHGHG5xUAR-10" value="- connection" style="text;strokeColor=none;fillColor=none;align=left;verticalAlign=middle;spacingLeft=4;spacingRight=4;overflow=hidden;points=[[0,0.5],[1,0.5]];portConstraint=eastwest;rotatable=0;whiteSpace=wrap;html=1;" vertex="1" parent="5LRAOqItPmNHGHG5xUAR-9">
          <mxGeometry y="30" width="158" height="30" as="geometry" />
        </mxCell>
        <mxCell id="5LRAOqItPmNHGHG5xUAR-11" value="- model" style="text;strokeColor=none;fillColor=none;align=left;verticalAlign=middle;spacingLeft=4;spacingRight=4;overflow=hidden;points=[[0,0.5],[1,0.5]];portConstraint=eastwest;rotatable=0;whiteSpace=wrap;html=1;" vertex="1" parent="5LRAOqItPmNHGHG5xUAR-9">
          <mxGeometry y="60" width="158" height="30" as="geometry" />
        </mxCell>
        <mxCell id="5LRAOqItPmNHGHG5xUAR-12" value="- tableView_bicycles" style="text;strokeColor=none;fillColor=none;align=left;verticalAlign=middle;spacingLeft=4;spacingRight=4;overflow=hidden;points=[[0,0.5],[1,0.5]];portConstraint=eastwest;rotatable=0;whiteSpace=wrap;html=1;" vertex="1" parent="5LRAOqItPmNHGHG5xUAR-9">
          <mxGeometry y="90" width="158" height="30" as="geometry" />
        </mxCell>
        <mxCell id="5LRAOqItPmNHGHG5xUAR-13" value="- connection_sqlite" style="text;strokeColor=none;fillColor=none;align=left;verticalAlign=middle;spacingLeft=4;spacingRight=4;overflow=hidden;points=[[0,0.5],[1,0.5]];portConstraint=eastwest;rotatable=0;whiteSpace=wrap;html=1;" vertex="1" parent="5LRAOqItPmNHGHG5xUAR-9">
          <mxGeometry y="120" width="158" height="30" as="geometry" />
        </mxCell>
        <mxCell id="5LRAOqItPmNHGHG5xUAR-14" value="- create_table()" style="text;strokeColor=none;fillColor=none;align=left;verticalAlign=middle;spacingLeft=4;spacingRight=4;overflow=hidden;points=[[0,0.5],[1,0.5]];portConstraint=eastwest;rotatable=0;whiteSpace=wrap;html=1;" vertex="1" parent="5LRAOqItPmNHGHG5xUAR-9">
          <mxGeometry y="150" width="158" height="30" as="geometry" />
        </mxCell>
        <mxCell id="5LRAOqItPmNHGHG5xUAR-15" value="- save_data()" style="text;strokeColor=none;fillColor=none;align=left;verticalAlign=middle;spacingLeft=4;spacingRight=4;overflow=hidden;points=[[0,0.5],[1,0.5]];portConstraint=eastwest;rotatable=0;whiteSpace=wrap;html=1;" vertex="1" parent="5LRAOqItPmNHGHG5xUAR-9">
          <mxGeometry y="180" width="158" height="30" as="geometry" />
        </mxCell>
        <mxCell id="5LRAOqItPmNHGHG5xUAR-16" value="- remove_row()" style="text;strokeColor=none;fillColor=none;align=left;verticalAlign=middle;spacingLeft=4;spacingRight=4;overflow=hidden;points=[[0,0.5],[1,0.5]];portConstraint=eastwest;rotatable=0;whiteSpace=wrap;html=1;" vertex="1" parent="5LRAOqItPmNHGHG5xUAR-9">
          <mxGeometry y="210" width="158" height="30" as="geometry" />
        </mxCell>
        <mxCell id="5LRAOqItPmNHGHG5xUAR-17" value="+ __init__()" style="text;strokeColor=none;fillColor=none;align=left;verticalAlign=middle;spacingLeft=4;spacingRight=4;overflow=hidden;points=[[0,0.5],[1,0.5]];portConstraint=eastwest;rotatable=0;whiteSpace=wrap;html=1;" vertex="1" parent="5LRAOqItPmNHGHG5xUAR-9">
          <mxGeometry y="240" width="158" height="30" as="geometry" />
        </mxCell>
      </root>
    </mxGraphModel>
  </diagram>
</mxfile>
